<svg xmlns="http://www.w3.org/2000/svg" width="21.659" height="24" viewBox="0 0 21.659 24">
  <path id="discord" d="M20.222,0a2.631,2.631,0,0,1,2.607,2.475V24l-2.677-2.273-1.47-1.338-1.6-1.4.67,2.2H3.71A2.482,2.482,0,0,1,1.17,18.72V2.48A2.532,2.532,0,0,1,3.715,0h16.5ZM14.1,5.683h-.03l-.2.2A8.055,8.055,0,0,1,16.948,7.42,10.878,10.878,0,0,0,13.2,6.283a10.281,10.281,0,0,0-2.475,0h-.2a8.916,8.916,0,0,0-2.81.735c-.467.2-.735.336-.735.336a7.135,7.135,0,0,1,3.21-1.537l-.135-.135a6.009,6.009,0,0,0-3.477,1.27,15.651,15.651,0,0,0-1.8,7.02A4.364,4.364,0,0,0,8.52,15.778s.4-.533.805-1a3.957,3.957,0,0,1-2.14-1.4,3.317,3.317,0,0,1,.335.2h.06a.08.08,0,0,1,.06.03v.006a.077.077,0,0,0,.06.03c.33.136.66.27.93.4a8.181,8.181,0,0,0,1.8.536,10.271,10.271,0,0,0,3.21,0,9.242,9.242,0,0,0,1.8-.535,14.425,14.425,0,0,0,1.4-.737,3.974,3.974,0,0,1-2.2,1.4c.33.466.8,1,.8,1A5.22,5.22,0,0,0,19.3,13.98a15.618,15.618,0,0,0-1.815-7.02A6.014,6.014,0,0,0,14.047,5.7l.056-.02Zm.168,4.413A1.339,1.339,0,1,1,13,11.437a1.3,1.3,0,0,1,1.27-1.341Zm-4.543,0a1.339,1.339,0,1,1-1.274,1.341A1.3,1.3,0,0,1,9.729,10.1Z" transform="translate(-1.17)" fill="#fff"/>
</svg>
