<svg xmlns="http://www.w3.org/2000/svg" width="21.946" height="22" viewBox="0 0 21.946 22">
  <path id="pinterest" d="M11.018,0A10.988,10.988,0,0,0,7.012,21.22a10.563,10.563,0,0,1,.038-3.152c.2-.859,1.289-5.461,1.289-5.461a3.976,3.976,0,0,1-.329-1.633C8.009,9.45,8.9,8.306,10,8.306a1.381,1.381,0,0,1,1.391,1.547,22.023,22.023,0,0,1-.909,3.659A1.594,1.594,0,0,0,12.106,15.5c1.951,0,3.454-2.058,3.454-5.03A4.337,4.337,0,0,0,10.969,6,4.755,4.755,0,0,0,6.011,10.77a4.279,4.279,0,0,0,.815,2.513A.335.335,0,0,1,6.9,13.6c-.082.344-.269,1.1-.306,1.249-.049.206-.158.248-.368.151C4.86,14.367,4,12.361,4,10.741c0-3.461,2.519-6.648,7.26-6.648a6.452,6.452,0,0,1,6.776,6.346c0,3.79-2.39,6.84-5.714,6.84a2.968,2.968,0,0,1-2.528-1.264l-.687,2.611A11.971,11.971,0,0,1,7.734,21.51,10.989,10.989,0,1,0,10.989.024Z" transform="translate(-0.029)" fill="#fff"/>
</svg>
