<svg xmlns="http://www.w3.org/2000/svg" width="24.607" height="20" viewBox="0 0 24.607 20">
  <path id="twitter" d="M24.559,4.629a10.253,10.253,0,0,1-2.9.795A5.083,5.083,0,0,0,23.88,2.632a10.42,10.42,0,0,1-3.206,1.214,5.044,5.044,0,0,0-8.6,4.6,14.29,14.29,0,0,1-10.4-5.256A4.944,4.944,0,0,0,1,5.723a5.045,5.045,0,0,0,2.243,4.2A5.028,5.028,0,0,1,.958,9.291v.062A5.048,5.048,0,0,0,5,14.3a5.122,5.122,0,0,1-2.268.087,5.061,5.061,0,0,0,4.72,3.5A10.117,10.117,0,0,1,1.2,20.05,10.707,10.707,0,0,1,0,19.981a14.349,14.349,0,0,0,7.748,2.265A14.248,14.248,0,0,0,22.1,7.908c0-.215,0-.431-.015-.646a10.186,10.186,0,0,0,2.522-2.612Z" transform="translate(0 -2.246)" fill="#fff"/>
</svg>
