<svg xmlns="http://www.w3.org/2000/svg" width="28.386" height="20" viewBox="0 0 28.386 20">
  <path id="youtube" d="M27.792,6.669a3.567,3.567,0,0,0-2.51-2.526c-2.213-.6-11.089-.6-11.089-.6s-8.876,0-11.09.6A3.568,3.568,0,0,0,.594,6.669,37.379,37.379,0,0,0,0,13.545a37.379,37.379,0,0,0,.594,6.876A3.567,3.567,0,0,0,3.1,22.948c2.213.6,11.089.6,11.089.6s8.876,0,11.09-.6a3.566,3.566,0,0,0,2.51-2.526,37.452,37.452,0,0,0,.593-6.876A37.379,37.379,0,0,0,27.792,6.669Zm-16.5,11.1V9.325l7.419,4.22Z" transform="translate(0 -3.545)" fill="#fff"/>
</svg>
